<?xml version="1.0" encoding="iso-8859-1"?>
<!-- Generator: Adobe Illustrator 19.0.0, SVG Export Plug-In . SVG Version: 6.00 Build 0)  -->
<svg version="1.1" id="Layer_1" xmlns="http://www.w3.org/2000/svg" xmlns:xlink="http://www.w3.org/1999/xlink" x="0px" y="0px"
	 viewBox="0 0 192.553 192.553" style="enable-background:new 0 0 192.553 192.553;" xml:space="preserve">
<g>
	<g>
		<path d="M124.906,185.421V57.053V41.007V8.124c2.121,1.237,3.566,3.512,3.566,6.14v3.566h7.132v-3.566
			C135.604,6.397,129.205,0,121.34,0s-14.263,6.397-14.263,14.263v3.566h7.132v-3.566c0-2.627,1.445-4.902,3.566-6.14v29.491
			L81.92,39.418c-0.221,0.011-0.432,0.066-0.644,0.117c-0.052,0.012-0.103,0.013-0.154,0.028c-0.445,0.128-0.847,0.351-1.209,0.634
			c-0.037,0.029-0.086,0.034-0.121,0.064l-30.404,25.79L18.985,91.837c-1.313,1.114-1.643,3.009-0.782,4.503l7.132,12.355
			c0.653,1.128,1.846,1.783,3.089,1.783c0.4,0,0.808-0.066,1.201-0.209L67.16,96.83l37.535-13.435
			c0.066-0.023,0.109-0.082,0.172-0.109c0.225-0.095,0.407-0.244,0.609-0.384c0.238-0.164,0.467-0.318,0.658-0.535
			c0.051-0.058,0.128-0.082,0.176-0.143l11.463-14.765v117.962H39.326v7.132h135.501v-7.132H124.906z M30.023,102.552l-4.155-7.202
			l24.875-21.095l4.995,8.65l4.994,8.65L30.023,102.552z M67.559,89.113l-11.288-19.55l24.875-21.099l8.561,14.827l8.56,14.828
			L67.559,89.113z M117.774,55.831l-13.843,17.832l-0.361-0.626L88.104,46.251l29.67-1.494V55.831z"/>
	</g>
</g>
<g>
</g>
<g>
</g>
<g>
</g>
<g>
</g>
<g>
</g>
<g>
</g>
<g>
</g>
<g>
</g>
<g>
</g>
<g>
</g>
<g>
</g>
<g>
</g>
<g>
</g>
<g>
</g>
<g>
</g>
</svg>
